<svg width="140" height="158" viewBox="0 0 140 158" fill="none" xmlns="http://www.w3.org/2000/svg">
<path d="M62.7852 48.5288L59.1616 7.40672C59.1616 3.34029 63.9052 0 69.8743 0C75.8433 0 80.6045 3.34029 80.6045 7.40672L76.9721 48.5288C76.5636 51.0065 73.5462 52.9165 69.8699 52.9165C66.1936 52.9165 63.1849 51.0065 62.7852 48.5288ZM47.6891 65.7539C49.525 62.5633 49.3845 58.9941 47.4431 57.4054L13.7064 33.6977C10.2014 31.6645 4.93947 34.1114 1.95275 39.2957C-1.04276 44.4756 -0.511297 50.2627 2.99371 52.296L40.3453 69.7235C42.6863 70.5949 45.8575 68.9358 47.6891 65.7539ZM92.0726 65.7539C93.9086 68.9402 97.0754 70.5949 99.412 69.7235L136.768 52.296C140.286 50.2671 140.791 44.4756 137.818 39.2957C134.818 34.1114 129.552 31.6645 126.051 33.6977L92.3142 57.4054C90.386 58.9941 90.2367 62.5677 92.0726 65.7539ZM62.7852 108.658L59.1616 149.78C59.1616 153.851 63.9052 157.183 69.8743 157.183C75.8433 157.183 80.6045 153.851 80.6045 149.78L76.9721 108.658C76.5636 106.185 73.5462 104.279 69.8699 104.279C66.1936 104.279 63.1849 106.181 62.7852 108.658ZM92.3142 99.8037L126.051 123.494C129.547 125.523 134.818 123.067 137.818 117.896C140.791 112.712 140.286 106.92 136.768 104.882L99.412 87.4768C97.0754 86.5966 93.913 88.247 92.0726 91.4376C90.2367 94.6195 90.386 98.1974 92.3142 99.8037ZM40.3453 87.4724L2.99371 104.878C-0.511297 106.916 -1.04276 112.707 1.95275 117.891C4.93947 123.058 10.2014 125.518 13.7064 123.489L47.4431 99.7993C49.3845 98.193 49.525 94.6195 47.6891 91.4332C45.8531 88.2425 42.6819 86.5878 40.3453 87.4724Z" fill="black"/>
</svg>
